{"title":"Silent Night Deadly Night 2 - 1987 - DVDRip - DIVX MP3","uid":6716826,"size":726574097,"categoryP":"video","categoryS":"movies","magnet":"?xt=urn:btih:42498c87138630edab7c19b0cc6a92bbfa24d5f2&amp;dn=Silent+Night+Deadly+Night+2+-+1987+-+DVDRip+-+DIVX+MP3&amp;tr=udp%3A%2F%2Ftracker.openbittorrent.com%3A80&amp;tr=udp%3A%2F%2Fopen.demonii.com%3A1337&amp;tr=udp%3A%2F%2Ftracker.coppersurfer.tk%3A6969&amp;tr=udp%3A%2F%2Fexodus.desync.com%3A6969","seeders":3,"leechers":1,"uploader":"skepticink","files":-1,"time":1317589506,"description":"Original upload by tebor @ Demonoid.\n\n====================================\n\nFrom source :\n===========\n\nSilent Night Deadly Night 2 1987\n\nPlot:\nRicky, the brother of the killer in the first film, talks to a psychitrist about how he became a brutal killer after his brother died, leading back to Mother Superior.\n\nBy request for\nStrangeAnimal and aknowledgeseeker5\n\n====================================\n  &lt;a href=&quot;\nhttp://www.imdb.com/title/tt0093974/&quot; rel=&quot;nofollow&quot; target=&quot;_NEW&quot;&gt;\nhttp://www.imdb.com/title/tt0093974/&lt;/a&gt;\n\nMedia nfo :\n===========\n\nVideo\nID                               : 0\nFormat                           : MPEG-4 Visual\nFormat settings, BVOP            : 1\nFormat settings, QPel            : No\nFormat settings, GMC             : No warppoints\nFormat settings, Matrix          : Default (H.263)\nMuxing mode                      : Packed bitstream\nCodec ID                         : DX50\nCodec ID/Hint                    : DivX 5\nDuration                         : 1h 28mn\nBit rate                         : 917 Kbps\nWidth                            : 640 pixels\nHeight                           : 336 pixels\nDisplay aspect ratio             : 1.905\nFrame rate                       : 23.976 fps\nColor space                      : YUV\nChroma subsampling               : 4:2:0\nBit depth                        : 8 bits\nScan type                        : Progressive\nCompression mode                 : Lossy\nBits/(Pixel*Frame)               : 0.178\nStream size                      : 579 MiB (84%)\nWriting library                  : DivX 5.1.1 (Maupiti) (UTC 2003-11-19)\n\nAudio\nID                               : 1\nFormat                           : MPEG Audio\nFormat version                   : Version 1\nFormat profile                   : Layer 3\nCodec ID                         : 55\nCodec ID/Hint                    : MP3\nDuration                         : 1h 28mn\nBit rate mode                    : Constant\nBit rate                         : 128 Kbps\nChannel(s)                       : 2 channels\nSampling rate                    : 44.1 KHz\nCompression mode                 : Lossy\nStream size                      : 80.8 MiB (12%)\nAlignment                        : Split accross interleaves\nWriting library                  : LAME3.92","torrent":{"xt":"urn:btih:42498c87138630edab7c19b0cc6a92bbfa24d5f2","amp;dn":"Silent+Night+Deadly+Night+2+-+1987+-+DVDRip+-+DIVX+MP3","amp;tr":["udp%3A%2F%2Ftracker.openbittorrent.com%3A80","udp%3A%2F%2Fopen.demonii.com%3A1337","udp%3A%2F%2Ftracker.coppersurfer.tk%3A6969","udp%3A%2F%2Fexodus.desync.com%3A6969"],"infoHash":"42498c87138630edab7c19b0cc6a92bbfa24d5f2","infoHashBuffer":{"type":"Buffer","data":[66,73,140,135,19,134,48,237,171,124,25,176,204,106,146,187,250,36,213,242]},"announce":[],"urlList":[]}}